<?xml version="1.0" encoding="iso-8859-1"?>
<!-- Generator: Adobe Illustrator 16.0.4, SVG Export Plug-In . SVG Version: 6.00 Build 0)  -->
<!DOCTYPE svg PUBLIC "-//W3C//DTD SVG 1.1//EN" "http://www.w3.org/Graphics/SVG/1.1/DTD/svg11.dtd">
<svg version="1.1" id="Capa_1" xmlns="http://www.w3.org/2000/svg" xmlns:xlink="http://www.w3.org/1999/xlink" x="0px" y="0px"
	 width="21.599px" height="21.598px" viewBox="0 0 21.599 21.598" style="enable-background:new 0 0 21.599 21.598;"
	 xml:space="preserve">
<g>
	<path style="fill-rule:evenodd;clip-rule:evenodd;fill:#231F20;" d="M10.799,0c5.963,0,10.799,4.836,10.799,10.799
		c0,5.963-4.836,10.799-10.799,10.799S0,16.762,0,10.799C0,4.836,4.836,0,10.799,0L10.799,0z M5.158,8.212
		c-0.2-4.287-2.308,1.481-4.005,2.16c-0.24,5.459,4.169,10.083,9.646,10.083c5.333,0,9.656-4.324,9.656-9.656
		c0-2.269-1.791-4.735-4.236-2.408c-0.941,0.895-2.271,1.616-2.474,0.164c-0.23-1.652-0.487-2.047-1.846-0.166
		c-3.582,4.957-1.116-4.167-3.919-0.454C6.798,9.416,5.273,10.684,5.158,8.212z"/>
	<path style="fill-rule:evenodd;clip-rule:evenodd;fill:#231F20;" d="M16.391,15.099c-0.801,2.318-3.002,3.983-5.592,3.983
		c-2.59,0-4.791-1.665-5.592-3.983H5.56c1.048,1.431,3.135,2.381,5.239,2.381c2.104,0,4.286-0.95,5.335-2.381H16.391z"/>
	<circle style="fill-rule:evenodd;clip-rule:evenodd;fill:#231F20;" cx="7.293" cy="12.431" r="0.761"/>
	<circle style="fill-rule:evenodd;clip-rule:evenodd;fill:#231F20;" cx="14.489" cy="12.431" r="0.761"/>
</g>
<g>
</g>
<g>
</g>
<g>
</g>
<g>
</g>
<g>
</g>
<g>
</g>
<g>
</g>
<g>
</g>
<g>
</g>
<g>
</g>
<g>
</g>
<g>
</g>
<g>
</g>
<g>
</g>
<g>
</g>
</svg>
