<?xml version="1.0" encoding="iso-8859-1"?>
<!-- Generator: Adobe Illustrator 17.0.0, SVG Export Plug-In . SVG Version: 6.00 Build 0)  -->
<!DOCTYPE svg PUBLIC "-//W3C//DTD SVG 1.1//EN" "http://www.w3.org/Graphics/SVG/1.1/DTD/svg11.dtd">
<svg version="1.1" id="Capa_1" xmlns="http://www.w3.org/2000/svg" xmlns:xlink="http://www.w3.org/1999/xlink" x="0px" y="0px"
	 width="64px" height="64px" viewBox="0 0 64 64" style="enable-background:new 0 0 64 64;" xml:space="preserve">
<path d="M5.64,6.52c-1.303,1.302-1.556,4.302-0.753,8.916l1.503,8.643c0.469,2.693,0.85,5.865,0.85,7.071v24.377
	c0,3.032,2.467,5.5,5.5,5.5h29.444c0.329,0.068,0.67,0.105,1.02,0.105c0.002,0,0.004,0,0.006,0l10.795-0.014
	c2.366-0.003,4.405-1.663,4.888-3.979l2.063-9.896c0.564-2.703-1.171-5.352-3.874-5.915c-2.708-0.567-5.352,1.171-5.915,3.874
	l-1.235,5.922l-1.523,0.002V32.222c0-0.511,0.617-3.005,1.502-5.768l4.456-13.907c0.355-1.106,2.019-6.731-0.067-8.817
	c-1.042-1.043-2.429-1.617-3.904-1.617s-2.862,0.574-3.904,1.617c-1.208,1.208-1.84,3.684-2.451,6.079
	c-0.225,0.882-0.438,1.715-0.668,2.434l-4.456,13.907c-0.153,0.477-0.398,0.929-0.684,1.36c0.088,0.177,0.168,0.359,0.239,0.545
	c0.07,0.184,0.13,0.371,0.182,0.562c0.135,0.5,0.214,1.024,0.214,1.566v8.497c0,3.32-2.701,6.021-6.021,6.021
	c-2.096,0-3.943-1.077-5.021-2.706c-1.079,1.629-2.926,2.706-5.021,2.706c-3.32,0-6.021-2.701-6.021-6.021v-6.952
	c0-1.09,0.296-2.111,0.805-2.994c0.089-0.154,0.183-0.305,0.285-0.451c0.1-0.142,0.203-0.281,0.315-0.414
	c-0.338-0.559-0.579-1.174-0.681-1.824l-1.677-10.759c-0.075-0.479-0.145-1.006-0.218-1.556c-0.364-2.73-0.776-5.825-2.163-7.212
	c-1.042-1.043-2.429-1.617-3.904-1.617C8.068,4.902,6.682,5.477,5.64,6.52z"/>
<path d="M22.804,27.707c-1.342,0-2.524,0.667-3.255,1.679c-0.097,0.134-0.178,0.279-0.258,0.425
	c-0.08,0.146-0.159,0.291-0.221,0.446c-0.181,0.457-0.287,0.951-0.287,1.471v6.952c0,2.218,1.804,4.021,4.021,4.021
	s4.021-1.804,4.021-4.021v-6.952c0-0.057-0.014-0.109-0.017-0.165c-0.007-0.17-0.023-0.337-0.051-0.5
	c-0.029-0.172-0.075-0.336-0.125-0.5C26.129,28.916,24.613,27.707,22.804,27.707z"/>
<path d="M32.846,26.162c-2.217,0-4.021,1.804-4.021,4.021v0.38v0.5v0.5v0.165v6.952c0,2.218,1.804,4.021,4.021,4.021
	s4.021-1.804,4.021-4.021v-8.445v-0.052c0-0.169-0.03-0.331-0.05-0.494c-0.023-0.188-0.056-0.371-0.105-0.55
	C36.249,27.43,34.7,26.162,32.846,26.162z"/>
</svg>
