<?xml version="1.0" encoding="utf-8"?>
<!-- Generator: Adobe Illustrator 16.0.0, SVG Export Plug-In . SVG Version: 6.00 Build 0)  -->
<!DOCTYPE svg PUBLIC "-//W3C//DTD SVG 1.1//EN" "http://www.w3.org/Graphics/SVG/1.1/DTD/svg11.dtd">
<svg version="1.1" id="Layer_1" xmlns="http://www.w3.org/2000/svg" xmlns:xlink="http://www.w3.org/1999/xlink" x="0px" y="0px"
	 width="512px" height="512px" viewBox="0 0 512 512" enable-background="new 0 0 512 512" xml:space="preserve">
<path d="M256,32c123.5,0,224,100.5,224,224S379.5,480,256,480S32,379.5,32,256S132.5,32,256,32 M256,0C114.625,0,0,114.625,0,256
	s114.625,256,256,256s256-114.625,256-256S397.375,0,256,0L256,0z M256,64C149.938,64,64,149.938,64,256
	c0,106.031,85.938,192,192,192c106.031,0,192-85.969,192-192C448,149.938,362.031,64,256,64z M325.813,354.844
	c-12.594,14.125-30.781,22.438-54.563,24.938V416h-30.313v-36.031c-39.656-4.063-64.188-27.125-73.656-69.125l46.875-12.219
	c4.344,26.406,18.719,39.594,43.125,39.594c11.406,0,19.844-2.813,25.219-8.469s8.063-12.469,8.063-20.469
	c0-8.281-2.688-14.563-8.063-18.813c-5.375-4.281-17.344-9.688-35.875-16.25c-16.656-5.781-29.688-11.469-39.063-17.156
	c-9.375-5.625-17-13.531-22.844-23.688c-5.844-10.188-8.781-22.063-8.781-35.563c0-17.719,5.25-33.688,15.688-47.875
	c10.438-14.156,26.875-22.813,49.313-25.969V96h30.313v27.969c33.875,4.063,55.813,23.219,65.781,57.5l-41.75,17.125
	c-8.156-23.5-20.719-35.25-37.781-35.25c-8.563,0-15.438,2.625-20.594,7.875c-5.188,5.25-7.781,11.625-7.781,19.094
	c0,7.625,2.5,13.469,7.5,17.563c4.969,4.063,15.688,9.094,32.063,15.125c18,6.563,32.125,12.781,42.344,18.625
	c10.25,5.844,18.406,13.938,24.531,24.219c6.094,10.313,9.156,22.344,9.156,36.125C344.719,323.125,338.406,340.75,325.813,354.844z
	"/>
</svg>
