<?xml version="1.0" encoding="utf-8"?>
<!-- Generator: Adobe Illustrator 16.0.4, SVG Export Plug-In . SVG Version: 6.00 Build 0)  -->
<!DOCTYPE svg PUBLIC "-//W3C//DTD SVG 1.1//EN" "http://www.w3.org/Graphics/SVG/1.1/DTD/svg11.dtd">
<svg version="1.1" id="Capa_1" xmlns="http://www.w3.org/2000/svg" xmlns:xlink="http://www.w3.org/1999/xlink" x="0px" y="0px"
	 width="512px" height="512px" viewBox="0 0 512 512" enable-background="new 0 0 512 512" xml:space="preserve">
<path d="M256,512c141.385,0,256-114.615,256-256S397.385,0,256,0S0,114.615,0,256S114.615,512,256,512z M256,48
	c114.875,0,208,93.125,208,208s-93.125,208-208,208S48,370.875,48,256S141.125,48,256,48z M192,352c0-35.346,28.654-64,64-64
	c35.346,0,64,28.654,64,64s-28.654,64-64,64C220.654,416,192,387.346,192,352z M320,176c0,26.51,14.327,48,32,48s32-21.49,32-48
	s-14.327-48-32-48S320,149.49,320,176z M128,176c0,26.51,14.327,48,32,48s32-21.49,32-48s-14.327-48-32-48S128,149.49,128,176z"/>
</svg>
